<?xml version="1.0" encoding="UTF-8"?>
<!DOCTYPE svg PUBLIC "-//W3C//DTD SVG 1.1//EN" "http://www.w3.org/Graphics/SVG/1.1/DTD/svg11.dtd">
<svg xmlns="http://www.w3.org/2000/svg" version="1.1" width="1556px" height="2000px" style="shape-rendering:geometricPrecision; text-rendering:geometricPrecision; image-rendering:optimizeQuality; fill-rule:evenodd; clip-rule:evenodd" xmlns:xlink="http://www.w3.org/1999/xlink">
<g><path style="opacity:1" fill="#fefefe" d="M -0.5,-0.5 C 518.167,-0.5 1036.83,-0.5 1555.5,-0.5C 1555.5,666.167 1555.5,1332.83 1555.5,1999.5C 1036.83,1999.5 518.167,1999.5 -0.5,1999.5C -0.5,1332.83 -0.5,666.167 -0.5,-0.5 Z"/></g>
<g><path style="opacity:1" fill="#0e2659" d="M 791.5,785.5 C 791.987,786.473 792.487,787.473 793,788.5C 793.499,783.511 793.666,778.511 793.5,773.5C 796.12,762.213 803.12,755.213 814.5,752.5C 814.833,751 815.167,749.5 815.5,748C 812.989,734.263 812.155,720.429 813,706.5C 817.184,694.823 825.351,690.657 837.5,694C 842.175,698.504 846.008,703.671 849,709.5C 852.738,701.483 858.571,695.65 866.5,692C 882.993,689.066 891.659,695.899 892.5,712.5C 891.105,722.469 888.105,731.969 883.5,741C 902.687,740.187 911.854,749.354 911,768.5C 909.416,773.266 907.083,777.6 904,781.5C 904.556,795.888 899.056,807.388 887.5,816C 880.575,820.947 873.908,826.114 867.5,831.5C 863.687,851.104 858.354,870.27 851.5,889C 861.976,910.095 869.476,932.262 874,955.5C 877.277,975.641 875.61,995.308 869,1014.5C 864.525,1025.29 857.358,1033.79 847.5,1040C 854.112,1041.21 860.778,1041.71 867.5,1041.5C 872.292,1020.43 883.292,1003.26 900.5,990C 919.841,975.996 941.507,968.329 965.5,967C 1004.68,966.169 1042.68,972.502 1079.5,986C 1084.42,989.615 1084.76,993.615 1080.5,998C 1050.72,1003.14 1025.22,1016.31 1004,1037.5C 996.762,1046.31 991.929,1056.31 989.5,1067.5C 1002.37,1071.57 1015.03,1076.23 1027.5,1081.5C 1065.07,1044.19 1109.4,1033.02 1160.5,1048C 1184.06,1055.36 1205.56,1066.53 1225,1081.5C 1226.29,1085.67 1225.12,1088.84 1221.5,1091C 1211.18,1090.61 1200.85,1090.61 1190.5,1091C 1187.3,1091.2 1184.3,1092.03 1181.5,1093.5C 1218.66,1097.01 1251.16,1111.01 1279,1135.5C 1281.66,1140.28 1280.83,1144.11 1276.5,1147C 1265.18,1146.57 1253.85,1146.57 1242.5,1147C 1232.12,1147.59 1222.79,1150.92 1214.5,1157C 1235.25,1170.79 1257.92,1175.13 1282.5,1170C 1292.48,1167.55 1302.31,1164.71 1312,1161.5C 1318.02,1162.19 1320.02,1165.53 1318,1171.5C 1279.28,1206.12 1234.45,1229.62 1183.5,1242C 1177.77,1242.43 1172.1,1243.27 1166.5,1244.5C 1180.07,1256.73 1196.07,1261.9 1214.5,1260C 1221.11,1264.82 1221.11,1269.82 1214.5,1275C 1183.68,1297.29 1149.35,1305.62 1111.5,1300C 1082.68,1294.75 1056.02,1284.25 1031.5,1268.5C 1030.4,1267.4 1029.07,1267.24 1027.5,1268C 1022.93,1272.08 1018.27,1275.91 1013.5,1279.5C 1018.7,1296.54 1028.7,1310.04 1043.5,1320C 1065.16,1332.47 1088.49,1339.13 1113.5,1340C 1119.21,1343.55 1119.88,1347.88 1115.5,1353C 1087.47,1367.23 1058.14,1377.9 1027.5,1385C 1011.89,1387.13 996.228,1387.79 980.5,1387C 944.628,1383.07 917.628,1365.57 899.5,1334.5C 773.259,1379.26 643.592,1393.42 510.5,1377C 449.103,1369.12 392.77,1348.12 341.5,1314C 312.482,1292.99 289.982,1266.49 274,1234.5C 273.488,1221.21 276.155,1208.54 282,1196.5C 303.84,1149.99 337.34,1114.49 382.5,1090C 393.435,1083.7 404.769,1078.2 416.5,1073.5C 432.828,1049.52 448.661,1025.18 464,1000.5C 470.634,989.573 475.301,977.907 478,965.5C 478.844,938.975 477.011,912.642 472.5,886.5C 455.185,879.185 442.852,866.852 435.5,849.5C 375.811,816.853 341.978,766.52 334,698.5C 333.667,686.167 333.333,673.833 333,661.5C 314.931,607.382 328.764,563.549 374.5,530C 382.106,524.571 390.106,519.737 398.5,515.5C 448.77,459.899 511.437,435.399 586.5,442C 629.799,448.326 668.466,464.993 702.5,492C 728.734,514.075 746.734,541.575 756.5,574.5C 786.013,578.513 803.179,595.18 808,624.5C 811.195,649.531 805.862,672.531 792,693.5C 783.863,703.402 773.53,709.736 761,712.5C 757.014,723.306 751.847,733.473 745.5,743C 760.834,745.987 772.668,754.153 781,767.5C 785.154,773.145 788.654,779.145 791.5,785.5 Z"/></g>
<g><path style="opacity:1" fill="#f1f1f2" d="M 543.5,453.5 C 559.589,452.916 575.589,453.75 591.5,456C 580.903,463.727 573.07,473.56 568,485.5C 546.948,481.941 525.782,480.774 504.5,482C 512.921,466.058 525.921,456.558 543.5,453.5 Z"/></g>
<g><path style="opacity:1" fill="#f2f2f3" d="M 610.5,460.5 C 660.636,472.29 700.136,499.29 729,541.5C 735.756,552.013 740.59,563.346 743.5,575.5C 742.739,578.709 740.739,580.209 737.5,580C 704.295,545.469 665.628,518.802 621.5,500C 608.734,495.243 595.734,491.41 582.5,488.5C 582.884,484.396 584.384,480.729 587,477.5C 593.433,469.718 601.267,464.052 610.5,460.5 Z"/></g>
<g><path style="opacity:1" fill="#edeeef" d="M 499.5,462.5 C 500.376,462.369 501.043,462.702 501.5,463.5C 496.837,469.984 492.837,476.817 489.5,484C 471.507,487.582 453.841,491.915 436.5,497C 455.765,482.367 476.765,470.867 499.5,462.5 Z"/></g>
<g><path style="opacity:1" fill="#eff0f1" d="M 689.5,558.5 C 689.063,556.926 688.063,555.759 686.5,555C 627.121,516.573 562.121,500.906 491.5,508C 426.206,514.867 376.039,545.701 341,600.5C 340.536,599.906 340.369,599.239 340.5,598.5C 345.383,579.455 355.05,563.289 369.5,550C 446.982,491.074 531.315,479.074 622.5,514C 653.695,528.086 682.028,546.419 707.5,569C 701.128,566.308 695.128,562.808 689.5,558.5 Z"/></g>
<g><path style="opacity:1" fill="#c8cdd6" d="M 689.5,558.5 C 646.733,533.967 600.733,519.801 551.5,516C 495.711,513.351 444.378,527.018 397.5,557C 370.325,577.193 351.159,603.359 340,635.5C 336.625,622.998 336.792,610.664 340.5,598.5C 340.369,599.239 340.536,599.906 341,600.5C 376.039,545.701 426.206,514.867 491.5,508C 562.121,500.906 627.121,516.573 686.5,555C 688.063,555.759 689.063,556.926 689.5,558.5 Z"/></g>
<g><path style="opacity:1" fill="#4e6191" d="M 708.5,588.5 C 682.581,574.579 655.581,563.079 627.5,554C 566.018,535.854 505.684,539.187 446.5,564C 435.772,568.928 425.438,574.428 415.5,580.5C 394.192,584.969 379.359,597.302 371,617.5C 370.047,620.432 369.547,623.432 369.5,626.5C 359.083,642.915 352.916,660.915 351,680.5C 349.923,703.46 353.089,725.793 360.5,747.5C 349.532,721.345 345.365,694.012 348,665.5C 356.756,612.405 385.589,574.572 434.5,552C 490.691,527.826 548.358,523.826 607.5,540C 644.165,550.336 677.832,566.502 708.5,588.5 Z"/></g>
<g><path style="opacity:1" fill="#042c6f" d="M 708.5,588.5 C 712.875,590.693 716.875,593.526 720.5,597C 707.584,617.475 703.75,639.642 709,663.5C 711.09,672.275 714.257,680.608 718.5,688.5C 688.848,758.64 637.182,803.807 563.5,824C 523.169,831.547 482.502,832.547 441.5,827C 433.931,825.312 426.264,823.812 418.5,822.5C 391.689,803.178 372.356,778.178 360.5,747.5C 353.089,725.793 349.923,703.46 351,680.5C 352.916,660.915 359.083,642.915 369.5,626.5C 370.57,648.729 382.237,658.229 404.5,655C 426.4,649.433 440.9,635.933 448,614.5C 450.368,590.699 439.534,579.366 415.5,580.5C 425.438,574.428 435.772,568.928 446.5,564C 505.684,539.187 566.018,535.854 627.5,554C 655.581,563.079 682.581,574.579 708.5,588.5 Z"/></g>
<g><path style="opacity:1" fill="#0b2659" d="M 415.5,580.5 C 439.534,579.366 450.368,590.699 448,614.5C 440.9,635.933 426.4,649.433 404.5,655C 382.237,658.229 370.57,648.729 369.5,626.5C 369.547,623.432 370.047,620.432 371,617.5C 379.359,597.302 394.192,584.969 415.5,580.5 Z"/></g>
<g><path style="opacity:1" fill="#ebeef5" d="M 413.5,594.5 C 433.622,592.792 439.455,601.125 431,619.5C 423.285,632.706 411.785,640.04 396.5,641.5C 385.212,640.618 381.045,634.618 384,623.5C 389.748,609.585 399.581,599.918 413.5,594.5 Z"/></g>
<g><path style="opacity:1" fill="#f0f0f1" d="M 774.5,596.5 C 768.973,599.186 763.806,602.519 759,606.5C 751.536,617.096 746.536,628.763 744,641.5C 743.501,637.514 743.334,633.514 743.5,629.5C 744.609,617.116 749.609,606.616 758.5,598C 763.713,594.176 769.046,593.676 774.5,596.5 Z"/></g>
<g><path style="opacity:1" fill="#c7ccd5" d="M 774.5,596.5 C 779.91,600.089 783.243,604.756 784.5,610.5C 775.81,606.721 768.31,608.388 762,615.5C 752.396,630.295 752.062,645.295 761,660.5C 770.054,670.384 779.721,671.051 790,662.5C 787.015,673.65 779.849,680.65 768.5,683.5C 758.439,681.278 751.606,675.278 748,665.5C 743.452,653.713 741.952,641.713 743.5,629.5C 743.334,633.514 743.501,637.514 744,641.5C 746.536,628.763 751.536,617.096 759,606.5C 763.806,602.519 768.973,599.186 774.5,596.5 Z"/></g>
<g><path style="opacity:1" fill="#c3c9d3" d="M 731.5,605.5 C 732.995,605.415 733.995,606.081 734.5,607.5C 727.513,625.853 726.68,644.52 732,663.5C 736.202,679.698 746.036,690.865 761.5,697C 754.442,698.479 748.109,696.979 742.5,692.5C 733.99,686.492 728.157,678.492 725,668.5C 717.436,646.418 719.603,625.418 731.5,605.5 Z"/></g>
<g><path style="opacity:1" fill="#c5cbd4" d="M 774.5,622.5 C 780.102,623.284 783.269,626.617 784,632.5C 785.037,638.394 784.371,644.061 782,649.5C 778.333,656.167 774.667,656.167 771,649.5C 766.882,639.712 768.049,630.712 774.5,622.5 Z"/></g>
<g><path style="opacity:1" fill="#0a2659" d="M 386.5,662.5 C 409.399,660.89 418.565,671.224 414,693.5C 403.879,714.643 387.379,723.143 364.5,719C 354.384,711.912 351.217,702.412 355,690.5C 361.324,676.336 371.824,667.003 386.5,662.5 Z"/></g>
<g><path style="opacity:1" fill="#4d6190" d="M 687.5,668.5 C 684.048,722.217 659.381,763.384 613.5,792C 589.358,805.445 563.691,814.112 536.5,818C 612.819,794.515 663.152,744.682 687.5,668.5 Z"/></g>
<g><path style="opacity:1" fill="#eaedf4" d="M 388.5,676.5 C 401.705,675.303 405.205,680.636 399,692.5C 392.362,703.069 382.862,707.569 370.5,706C 366.837,701.464 366.67,696.631 370,691.5C 374.592,684.394 380.758,679.394 388.5,676.5 Z"/></g>
<g><path style="opacity:1" fill="#032669" d="M 718.5,688.5 C 721.635,691.808 724.635,695.308 727.5,699C 712.343,743.336 687.01,780.669 651.5,811C 607.975,843.388 558.975,857.388 504.5,853C 472.705,851.017 444.038,840.85 418.5,822.5C 426.264,823.812 433.931,825.312 441.5,827C 482.502,832.547 523.169,831.547 563.5,824C 637.182,803.807 688.848,758.64 718.5,688.5 Z"/></g>
<g><path style="opacity:1" fill="#e8e9ec" d="M 738.5,707.5 C 741.167,708.167 743.833,708.833 746.5,709.5C 739.795,728.028 729.628,744.361 716,758.5C 720.578,749.343 725.245,740.01 730,730.5C 733.41,723.02 736.243,715.353 738.5,707.5 Z"/></g>
<g><path style="opacity:1" fill="#eeeff0" d="M 869.5,705.5 C 876.071,703.912 879.071,706.412 878.5,713C 878.333,714.833 878.167,716.667 878,718.5C 873.742,727.607 870.076,736.941 867,746.5C 858.586,752.291 850.086,757.957 841.5,763.5C 837.833,760.167 834.167,756.833 830.5,753.5C 828.099,738.919 826.932,724.252 827,709.5C 828.067,707.717 829.567,707.217 831.5,708C 838.628,718.008 841.961,729.175 841.5,741.5C 838.616,748.708 840.783,753.375 848,755.5C 850.527,754.976 852.527,753.642 854,751.5C 854.83,737.514 858.163,724.181 864,711.5C 865.36,708.977 867.193,706.977 869.5,705.5 Z"/></g>
<g><path style="opacity:1" fill="#ecedef" d="M 882.5,755.5 C 886.182,755.335 889.848,755.501 893.5,756C 898.855,761.389 898.688,766.556 893,771.5C 878.348,768.461 864.515,770.795 851.5,778.5C 850.386,777.277 850.219,775.944 851,774.5C 860.882,766.983 871.382,760.65 882.5,755.5 Z"/></g>
<g><path style="opacity:1" fill="#c8cdd6" d="M 757.5,763.5 C 756.121,775.587 752.454,786.921 746.5,797.5C 741.5,795.336 736.833,792.669 732.5,789.5C 737.684,779.429 740.684,768.763 741.5,757.5C 748.066,756.573 753.399,758.573 757.5,763.5 Z"/></g>
<g><path style="opacity:1" fill="#f1f2f2" d="M 757.5,763.5 C 758.239,763.369 758.906,763.536 759.5,764C 770.671,775.992 779.338,789.659 785.5,805C 781.015,811.489 776.515,817.989 772,824.5C 765.688,813.357 757.188,804.357 746.5,797.5C 752.454,786.921 756.121,775.587 757.5,763.5 Z"/></g>
<g><path style="opacity:1" fill="#eaebee" d="M 814.5,766.5 C 822.188,765.263 828.021,767.929 832,774.5C 834.258,779.18 836.091,784.013 837.5,789C 835.95,795.954 831.783,798.454 825,796.5C 822.121,790.874 820.788,784.874 821,778.5C 817.219,773.799 813.219,773.466 809,777.5C 807.847,780.711 807.18,784.044 807,787.5C 804.494,778.505 806.994,771.505 814.5,766.5 Z"/></g>
<g><path style="opacity:1" fill="#c7ccd5" d="M 705.5,803.5 C 705.565,803.062 705.399,802.728 705,802.5C 679.41,826.556 649.91,844.39 616.5,856C 585.906,867.819 554.239,874.319 521.5,875.5C 502.604,875.135 484.271,871.801 466.5,865.5C 465.893,865.624 465.56,865.957 465.5,866.5C 462.703,864.205 460.036,861.705 457.5,859C 516.058,874.341 572.725,869.007 627.5,843C 647.151,832.357 664.817,819.023 680.5,803C 697.316,794.525 712.149,783.358 725,769.5C 721.36,782.443 714.86,793.776 705.5,803.5 Z"/></g>
<g><path style="opacity:1" fill="#5b6d8f" d="M 793.5,773.5 C 793.666,778.511 793.499,783.511 793,788.5C 792.487,787.473 791.987,786.473 791.5,785.5C 792.167,781.5 792.833,777.5 793.5,773.5 Z"/></g>
<g><path style="opacity:1" fill="#ecedef" d="M 876.5,783.5 C 880.182,783.335 883.848,783.501 887.5,784C 889.229,785.789 889.896,787.956 889.5,790.5C 887.143,790.337 884.81,790.503 882.5,791C 873.084,796.021 863.084,798.521 852.5,798.5C 853.091,795.386 854.758,792.886 857.5,791C 863.764,788.032 870.097,785.532 876.5,783.5 Z"/></g>
<g><path style="opacity:1" fill="#f3f3f3" d="M 849.5,811.5 C 844.27,818.276 839.77,825.609 836,833.5C 832.17,843.166 828.67,852.833 825.5,862.5C 814.987,859.984 806.487,854.317 800,845.5C 796.599,840.423 793.599,835.089 791,829.5C 789.85,827.246 789.516,824.913 790,822.5C 795.972,814.362 802.805,807.028 810.5,800.5C 818.673,812.276 829.006,814.609 841.5,807.5C 843.952,809.393 846.619,810.726 849.5,811.5 Z"/></g>
<g><path style="opacity:1" fill="#c6ccd5" d="M 738.5,809.5 C 736.068,810.75 733.734,812.25 731.5,814C 725.128,822.039 717.795,829.039 709.5,835C 697.03,840.799 685.03,847.465 673.5,855C 648.561,867.146 622.561,875.979 595.5,881.5C 624.609,872.737 652.275,860.57 678.5,845C 695.815,834.191 710.815,820.691 723.5,804.5C 729.092,804.117 734.092,805.783 738.5,809.5 Z"/></g>
<g><path style="opacity:1" fill="#ebecee" d="M 705.5,803.5 C 692.916,817.953 678.249,829.786 661.5,839C 621.219,860.094 578.552,873.76 533.5,880C 508.986,883.865 486.32,879.365 465.5,866.5C 465.56,865.957 465.893,865.624 466.5,865.5C 484.271,871.801 502.604,875.135 521.5,875.5C 554.239,874.319 585.906,867.819 616.5,856C 649.91,844.39 679.41,826.556 705,802.5C 705.399,802.728 705.565,803.062 705.5,803.5 Z"/></g>
<g><path style="opacity:1" fill="#f3f3f3" d="M 738.5,809.5 C 750.045,816.269 758.045,825.936 762.5,838.5C 754.726,855.318 748.226,872.651 743,890.5C 741.573,897.723 744.406,901.223 751.5,901C 753.002,900.417 754.335,899.584 755.5,898.5C 760.841,877.3 769.008,857.3 780,838.5C 788.226,856.896 801.726,869.562 820.5,876.5C 820.196,879.522 819.696,882.522 819,885.5C 805.735,907.432 787.901,924.599 765.5,937C 760.833,937.667 756.167,937.667 751.5,937C 744.442,932.147 737.442,927.314 730.5,922.5C 726.505,916.516 723.005,910.182 720,903.5C 715.62,891.358 711.453,879.192 707.5,867C 700.864,863.604 696.864,865.438 695.5,872.5C 700.419,896.78 710.252,918.78 725,938.5C 730.172,944.85 736.339,949.85 743.5,953.5C 745.56,960.12 748.56,966.286 752.5,972C 751.906,972.464 751.239,972.631 750.5,972.5C 732.588,968.711 715.921,961.878 700.5,952C 696.033,946.532 691.2,941.365 686,936.5C 678.731,923.754 674.397,910.087 673,895.5C 671.604,892.216 669.104,890.549 665.5,890.5C 636.218,896.564 606.885,902.398 577.5,908C 576.421,908.956 575.255,909.789 574,910.5C 569.168,919.501 563.835,928.168 558,936.5C 556.639,942.407 556.139,948.407 556.5,954.5C 545.684,951.677 536.684,946.011 529.5,937.5C 529.459,926.797 529.626,916.13 530,905.5C 525.585,900.274 521.251,900.274 517,905.5C 515.957,908.757 515.457,912.09 515.5,915.5C 513.534,920.92 512.034,926.587 511,932.5C 510.039,950.203 508.706,967.87 507,985.5C 506.998,988.051 506.164,990.051 504.5,991.5C 499.001,988.585 493.667,985.418 488.5,982C 490.022,978.338 490.855,974.505 491,970.5C 492.035,944.433 491.202,918.433 488.5,892.5C 506.794,894.98 525.127,895.147 543.5,893C 561.093,890.32 578.427,886.487 595.5,881.5C 622.561,875.979 648.561,867.146 673.5,855C 685.03,847.465 697.03,840.799 709.5,835C 717.795,829.039 725.128,822.039 731.5,814C 733.734,812.25 736.068,810.75 738.5,809.5 Z"/></g>
<g><path style="opacity:1" fill="#c8cdd6" d="M 825.5,862.5 C 828.67,852.833 832.17,843.166 836,833.5C 839.77,825.609 844.27,818.276 849.5,811.5C 852.08,812.116 854.747,812.449 857.5,812.5C 862.27,812.298 866.936,811.798 871.5,811C 868.082,814.089 864.082,815.756 859.5,816C 857.667,817.167 856.167,818.667 855,820.5C 853.036,834.06 850.036,847.393 846,860.5C 839.312,863.577 832.479,864.243 825.5,862.5 Z"/></g>
<g><path style="opacity:1" fill="#c8ced6" d="M 820.5,876.5 C 827.311,877.419 833.977,877.752 840.5,877.5C 833.319,897.491 822.319,914.991 807.5,930C 796.389,939.887 783.389,945.387 768.5,946.5C 752,944.583 739.333,936.583 730.5,922.5C 737.442,927.314 744.442,932.147 751.5,937C 756.167,937.667 760.833,937.667 765.5,937C 787.901,924.599 805.735,907.432 819,885.5C 819.696,882.522 820.196,879.522 820.5,876.5 Z"/></g>
<g><path style="opacity:1" fill="#c8cdd6" d="M 801.5,1018.5 C 801.155,1021.49 802.488,1022.82 805.5,1022.5C 817.735,1019.05 828.068,1012.55 836.5,1003C 836.272,1002.6 835.938,1002.43 835.5,1002.5C 853.364,992.929 856.031,980.262 843.5,964.5C 844.658,958.963 844.492,953.296 843,947.5C 841.663,941.493 840.33,935.493 839,929.5C 837.768,925.939 836.268,922.606 834.5,919.5C 837.573,915.028 840.407,910.361 843,905.5C 857.943,934.497 863.61,965.164 860,997.5C 855.531,1016.64 844.031,1029.47 825.5,1036C 816.688,1038.8 807.688,1040.63 798.5,1041.5C 799.419,1033.68 800.419,1026.02 801.5,1018.5 Z"/></g>
<g><path style="opacity:1" fill="#edeef0" d="M 644.5,908.5 C 645.873,908.343 647.207,908.51 648.5,909C 645.931,911.479 643.598,914.146 641.5,917C 621.572,928.26 600.239,933.426 577.5,932.5C 579.708,928.583 582.041,924.75 584.5,921C 604.637,916.874 624.637,912.707 644.5,908.5 Z"/></g>
<g><path style="opacity:1" fill="#c5cad4" d="M 660.5,915.5 C 661.75,915.577 662.583,916.244 663,917.5C 665.098,925.634 668.265,933.3 672.5,940.5C 666.801,941.364 662.635,944.364 660,949.5C 658.956,948.377 658.29,947.044 658,945.5C 656.2,937.576 655.534,929.576 656,921.5C 657.752,919.649 659.252,917.649 660.5,915.5 Z"/></g>
<g><path style="opacity:1" fill="#c5cbd4" d="M 515.5,915.5 C 513.392,952.566 521.725,987.066 540.5,1019C 538.093,1021.28 535.593,1023.45 533,1025.5C 525.804,1012.15 516.304,1000.81 504.5,991.5C 506.164,990.051 506.998,988.051 507,985.5C 508.706,967.87 510.039,950.203 511,932.5C 512.034,926.587 513.534,920.92 515.5,915.5 Z"/></g>
<g><path style="opacity:1" fill="#f2f2f3" d="M 834.5,919.5 C 836.268,922.606 837.768,925.939 839,929.5C 840.33,935.493 841.663,941.493 843,947.5C 844.492,953.296 844.658,958.963 843.5,964.5C 839.49,961.157 834.823,959.157 829.5,958.5C 817.696,962.601 805.863,966.601 794,970.5C 793.167,970.167 792.333,969.833 791.5,969.5C 789.754,965.673 787.754,962.007 785.5,958.5C 806.295,951.031 822.629,938.031 834.5,919.5 Z"/></g>
<g><path style="opacity:1" fill="#c9ced6" d="M 593.5,1001.5 C 598.781,997.05 603.614,992.05 608,986.5C 608.962,972.756 610.462,959.089 612.5,945.5C 612.043,944.702 611.376,944.369 610.5,944.5C 621.231,941.255 631.898,937.589 642.5,933.5C 643.283,950.519 648.616,965.853 658.5,979.5C 639.823,990.84 619.823,998.84 598.5,1003.5C 597.167,1003.33 595.833,1003.17 594.5,1003C 593.944,1002.62 593.611,1002.12 593.5,1001.5 Z"/></g>
<g><path style="opacity:1" fill="#c7cdd6" d="M 529.5,937.5 C 536.684,946.011 545.684,951.677 556.5,954.5C 556.814,967.362 559.481,979.696 564.5,991.5C 560.73,998.037 556.23,1004.04 551,1009.5C 537.876,987.293 530.709,963.293 529.5,937.5 Z"/></g>
<g><path style="opacity:1" fill="#f1f2f2" d="M 610.5,944.5 C 611.376,944.369 612.043,944.702 612.5,945.5C 610.462,959.089 608.962,972.756 608,986.5C 603.614,992.05 598.781,997.05 593.5,1001.5C 589.454,1000.52 585.954,998.515 583,995.5C 573.71,980.575 569.543,964.242 570.5,946.5C 583.908,946.912 597.241,946.245 610.5,944.5 Z"/></g>
<g><path style="opacity:1" fill="#c5cbd4" d="M 743.5,953.5 C 751.95,957.826 760.95,960.326 770.5,961C 773.032,964.702 775.365,968.535 777.5,972.5C 768.342,973.822 759.342,973.822 750.5,972.5C 751.239,972.631 751.906,972.464 752.5,972C 748.56,966.286 745.56,960.12 743.5,953.5 Z"/></g>
<g><path style="opacity:1" fill="#e6eaf1" d="M 836.5,979.5 C 833.813,979.336 831.146,979.503 828.5,980C 803.978,991.143 778.311,995.476 751.5,993C 733.897,989.242 717.23,982.908 701.5,974C 694.395,968.281 686.395,964.448 677.5,962.5C 670.031,956.244 671.031,954.411 680.5,957C 698.098,968.132 716.765,977.132 736.5,984C 748.294,987.282 760.294,988.282 772.5,987C 779.852,986.537 787.185,985.87 794.5,985C 806.417,981.361 818.25,977.528 830,973.5C 833.904,973.569 836.07,975.569 836.5,979.5 Z"/></g>
<g><path style="opacity:1" fill="#c1c9d7" d="M 677.5,962.5 C 686.395,964.448 694.395,968.281 701.5,974C 717.23,982.908 733.897,989.242 751.5,993C 778.311,995.476 803.978,991.143 828.5,980C 831.146,979.503 833.813,979.336 836.5,979.5C 837.807,981.223 837.807,983.057 836.5,985C 820.71,995.263 803.377,1000.93 784.5,1002C 751.52,1004.47 721.187,996.808 693.5,979C 687.27,974.272 681.937,968.772 677.5,962.5 Z"/></g>
<g><path style="opacity:1" fill="#f33132" d="M 1037.5,996.5 C 1025.82,994.864 1014.15,993.031 1002.5,991C 961.52,984.508 926.687,996.008 898,1025.5C 893.797,1030.74 889.964,1036.24 886.5,1042C 884.866,1042.49 883.199,1042.66 881.5,1042.5C 886.951,1022.81 898.618,1007.31 916.5,996C 943.204,981.96 971.538,977.294 1001.5,982C 1017.86,983.759 1033.86,987.092 1049.5,992C 1045.52,993.605 1041.52,995.105 1037.5,996.5 Z"/></g>
<g><path style="opacity:1" fill="#c8cdd6" d="M 732.5,1102.5 C 733.763,1097.97 735.597,1093.63 738,1089.5C 748.521,1073.46 757.188,1056.46 764,1038.5C 765.267,1033.56 766.1,1028.56 766.5,1023.5C 733.264,1023.92 703.098,1014.59 676,995.5C 664.344,1000.91 652.844,1006.74 641.5,1013C 627.932,1015.53 614.599,1018.86 601.5,1023C 599.656,1026.37 598.322,1029.87 597.5,1033.5C 591.497,1034.33 585.497,1034.83 579.5,1035C 583.665,1029.67 587.332,1024.01 590.5,1018C 610.196,1016.32 628.863,1010.99 646.5,1002C 657.327,996.421 667.994,990.587 678.5,984.5C 698.112,1000.3 720.446,1010.13 745.5,1014C 759.425,1016.04 773.425,1016.88 787.5,1016.5C 784.849,1047.3 772.849,1073.8 751.5,1096C 745.117,1098.07 738.784,1100.24 732.5,1102.5 Z"/></g>
<g><path style="opacity:1" fill="#bb2121" d="M 1037.5,996.5 C 1016.33,1005.49 999.168,1019.49 986,1038.5C 981.672,1046.15 978.172,1054.15 975.5,1062.5C 944.671,1052.81 913.338,1046.15 881.5,1042.5C 883.199,1042.66 884.866,1042.49 886.5,1042C 889.964,1036.24 893.797,1030.74 898,1025.5C 926.687,996.008 961.52,984.508 1002.5,991C 1014.15,993.031 1025.82,994.864 1037.5,996.5 Z"/></g>
<g><path style="opacity:1" fill="#f3f4f4" d="M 732.5,1102.5 C 712.452,1111.57 691.452,1117.73 669.5,1121C 658.021,1122.31 647.021,1120.65 636.5,1116C 635,1115.17 633.833,1114 633,1112.5C 625.975,1081.55 634.642,1055.88 659,1035.5C 661.841,1029.32 659.841,1025.65 653,1024.5C 648.707,1025.78 645.207,1028.28 642.5,1032C 627.493,1032.41 612.493,1032.91 597.5,1033.5C 598.322,1029.87 599.656,1026.37 601.5,1023C 614.599,1018.86 627.932,1015.53 641.5,1013C 652.844,1006.74 664.344,1000.91 676,995.5C 703.098,1014.59 733.264,1023.92 766.5,1023.5C 766.1,1028.56 765.267,1033.56 764,1038.5C 757.188,1056.46 748.521,1073.46 738,1089.5C 735.597,1093.63 733.763,1097.97 732.5,1102.5 Z"/></g>
<g><path style="opacity:1" fill="#f2f2f3" d="M 501.5,1007.5 C 496.786,1021.93 491.786,1036.26 486.5,1050.5C 471.057,1054.48 455.724,1058.65 440.5,1063C 455.293,1041.92 468.959,1020.09 481.5,997.5C 482.723,996.386 484.056,996.219 485.5,997C 491.551,999.577 496.884,1003.08 501.5,1007.5 Z"/></g>
<g><path style="opacity:1" fill="#ecedef" d="M 579.5,997.5 C 574.12,1011.09 566.12,1022.92 555.5,1033C 552.52,1035.32 549.187,1036.82 545.5,1037.5C 545.5,1036.17 545.5,1034.83 545.5,1033.5C 558.555,1023.71 569.055,1011.71 577,997.5C 577.977,996.226 578.811,996.226 579.5,997.5 Z"/></g>
<g><path style="opacity:1" fill="#c4cad3" d="M 579.5,997.5 C 580.962,998.458 582.295,999.624 583.5,1001C 577.178,1015.31 568.511,1027.98 557.5,1039C 553.738,1041.47 549.738,1041.97 545.5,1040.5C 544.234,1038.03 544.234,1035.69 545.5,1033.5C 545.5,1034.83 545.5,1036.17 545.5,1037.5C 549.187,1036.82 552.52,1035.32 555.5,1033C 566.12,1022.92 574.12,1011.09 579.5,997.5 Z"/></g>
<g><path style="opacity:1" fill="#eeeef0" d="M 835.5,1002.5 C 835.938,1002.43 836.272,1002.6 836.5,1003C 828.068,1012.55 817.735,1019.05 805.5,1022.5C 802.488,1022.82 801.155,1021.49 801.5,1018.5C 801.5,1016.83 801.5,1015.17 801.5,1013.5C 813.482,1011.84 824.816,1008.17 835.5,1002.5 Z"/></g>
<g><path style="opacity:1" fill="#c8cdd6" d="M 501.5,1007.5 C 505.498,1010.67 508.998,1014.33 512,1018.5C 517.132,1025.93 521.632,1033.76 525.5,1042C 512.458,1044.62 499.458,1047.45 486.5,1050.5C 491.786,1036.26 496.786,1021.93 501.5,1007.5 Z"/></g>
<g><path style="opacity:1" fill="#dde3e8" d="M 675.5,1276.5 C 675.423,1277.75 674.756,1278.58 673.5,1279C 644.356,1281.47 615.19,1283.64 586,1285.5C 584.293,1285.49 582.793,1285.16 581.5,1284.5C 603.72,1211.3 595.22,1141.97 556,1076.5C 550.883,1069.05 545.383,1061.88 539.5,1055C 548.302,1056.66 556.635,1055.32 564.5,1051C 581.912,1048.48 599.412,1046.98 617,1046.5C 621.167,1046.83 625.333,1047.17 629.5,1047.5C 617.36,1067.5 613.694,1089 618.5,1112C 615.604,1121.36 613.104,1130.86 611,1140.5C 608.773,1174.61 624.607,1194.11 658.5,1199C 665.403,1210.46 673.736,1220.8 683.5,1230C 675.35,1244.58 672.684,1260.08 675.5,1276.5 Z"/></g>
<g><path style="opacity:1" fill="#dee4e8" d="M 965.5,1220.5 C 912.469,1237.26 858.469,1250.59 803.5,1260.5C 802.584,1260.46 801.917,1260.12 801.5,1259.5C 809.958,1242.71 812.791,1225.05 810,1206.5C 808.861,1202.89 807.194,1199.55 805,1196.5C 790.04,1183.88 776.873,1169.71 765.5,1154C 773.68,1140.62 775.513,1126.45 771,1111.5C 769.802,1107.81 767.968,1104.47 765.5,1101.5C 776.938,1087.62 786.604,1072.62 794.5,1056.5C 858.349,1050.69 920.682,1058.19 981.5,1079C 987.621,1086.74 993.621,1094.58 999.5,1102.5C 951.725,1106.79 914.225,1128.46 887,1167.5C 884.755,1170.88 884.088,1174.55 885,1178.5C 907.681,1200.26 934.514,1214.26 965.5,1220.5 Z"/></g>
<g><path style="opacity:1" fill="#f77a1d" d="M 1044.5,1249.5 C 1065.71,1256.94 1086.38,1265.77 1106.5,1276C 1126.12,1282.99 1146.12,1284.32 1166.5,1280C 1153.38,1274.86 1141.88,1267.36 1132,1257.5C 1123.22,1242.42 1126.05,1229.92 1140.5,1220C 1143.77,1218.8 1147.11,1217.8 1150.5,1217C 1160.51,1216.84 1170.51,1216.84 1180.5,1217C 1206.17,1212.22 1230.83,1204.22 1254.5,1193C 1237.05,1189.51 1219.72,1185.51 1202.5,1181C 1193.22,1178.28 1189.06,1172.11 1190,1162.5C 1191.39,1158.71 1193.06,1155.05 1195,1151.5C 1198.79,1147.42 1201.95,1142.92 1204.5,1138C 1203.25,1135.7 1201.25,1134.36 1198.5,1134C 1194.05,1133.87 1189.72,1133.2 1185.5,1132C 1187,1130.75 1188.67,1129.75 1190.5,1129C 1212.82,1130.18 1213.82,1127.18 1193.5,1120C 1169.95,1113.46 1146.62,1114.13 1123.5,1122C 1120.18,1122.5 1116.85,1122.67 1113.5,1122.5C 1111.08,1122.12 1108.75,1121.46 1106.5,1120.5C 1105.57,1117.89 1105.4,1115.22 1106,1112.5C 1112.32,1097.51 1123.15,1087.35 1138.5,1082C 1145.74,1079.95 1153.08,1078.28 1160.5,1077C 1129.32,1064.77 1098.66,1065.77 1068.5,1080C 1060.92,1084.24 1054.59,1089.91 1049.5,1097C 1049.73,1097.4 1050.06,1097.57 1050.5,1097.5C 1049.5,1099.17 1048.17,1100.5 1046.5,1101.5C 1043.7,1098.52 1041.03,1095.36 1038.5,1092C 1070.09,1059.14 1108.09,1048.47 1152.5,1060C 1166.59,1064.05 1179.92,1069.71 1192.5,1077C 1172.9,1078.53 1155.73,1085.69 1141,1098.5C 1139.19,1104.52 1141.36,1108.19 1147.5,1109.5C 1185.01,1104.03 1219.67,1111.53 1251.5,1132C 1235.83,1132.6 1221.17,1136.6 1207.5,1144C 1203.33,1146.83 1199.83,1150.33 1197,1154.5C 1196.29,1156.97 1196.63,1159.3 1198,1161.5C 1220.2,1180.52 1246.04,1188.69 1275.5,1186C 1237.83,1213.39 1195.83,1228.55 1149.5,1231.5C 1147.06,1235.32 1146.89,1239.32 1149,1243.5C 1159.09,1259.64 1173.59,1269.48 1192.5,1273C 1157.41,1290.08 1121.41,1292.08 1084.5,1279C 1068.82,1273 1053.82,1265.66 1039.5,1257C 1041.39,1254.62 1043.06,1252.12 1044.5,1249.5 Z"/></g>
<g><path style="opacity:1" fill="#f66565" d="M 533.5,1070.5 C 483.417,1077.58 436.417,1093.75 392.5,1119C 361.154,1137.83 331.821,1159.33 304.5,1183.5C 321.861,1154.3 344.861,1130.47 373.5,1112C 419.743,1083.7 469.743,1065.7 523.5,1058C 527.831,1061.48 531.164,1065.65 533.5,1070.5 Z"/></g>
<g><path style="opacity:1" fill="#fdd60c" d="M 1106.5,1120.5 C 1099.36,1118.34 1092.36,1116.01 1085.5,1113.5C 1092.54,1099.8 1102.21,1088.13 1114.5,1078.5C 1098,1074.28 1082.33,1076.45 1067.5,1085C 1061.45,1088.69 1055.78,1092.85 1050.5,1097.5C 1050.06,1097.57 1049.73,1097.4 1049.5,1097C 1054.59,1089.91 1060.92,1084.24 1068.5,1080C 1098.66,1065.77 1129.32,1064.77 1160.5,1077C 1153.08,1078.28 1145.74,1079.95 1138.5,1082C 1123.15,1087.35 1112.32,1097.51 1106,1112.5C 1105.4,1115.22 1105.57,1117.89 1106.5,1120.5 Z"/></g>
<g><path style="opacity:1" fill="#f63232" d="M 533.5,1070.5 C 574.735,1125.82 588.235,1187.49 574,1255.5C 572.168,1264.81 569.668,1273.81 566.5,1282.5C 494.256,1283.73 422.922,1276.4 352.5,1260.5C 332.927,1255.64 313.594,1249.98 294.5,1243.5C 291.087,1238.67 288.754,1233.34 287.5,1227.5C 290.817,1211.87 296.484,1197.21 304.5,1183.5C 331.821,1159.33 361.154,1137.83 392.5,1119C 436.417,1093.75 483.417,1077.58 533.5,1070.5 Z"/></g>
<g><path style="opacity:1" fill="#f73f37" d="M 1085.5,1113.5 C 1073.29,1110.2 1060.96,1107.36 1048.5,1105C 1047.69,1103.89 1047.03,1102.72 1046.5,1101.5C 1048.17,1100.5 1049.5,1099.17 1050.5,1097.5C 1055.78,1092.85 1061.45,1088.69 1067.5,1085C 1082.33,1076.45 1098,1074.28 1114.5,1078.5C 1102.21,1088.13 1092.54,1099.8 1085.5,1113.5 Z"/></g>
<g><path style="opacity:1" fill="#4d6a84" d="M 1007.5,1088.5 C 1012.45,1090.64 1017.45,1092.8 1022.5,1095C 1024.68,1097.02 1026.68,1099.18 1028.5,1101.5C 1024.2,1102.66 1019.87,1102.83 1015.5,1102C 1012.68,1097.53 1010.02,1093.03 1007.5,1088.5 Z"/></g>
<g><path style="opacity:1" fill="#2b7eb5" d="M 626.5,1161.5 C 658.273,1175.68 687.44,1171.68 714,1149.5C 718.636,1141.09 721.136,1132.09 721.5,1122.5C 731.719,1118.03 742.219,1114.03 753,1110.5C 753.833,1110.83 754.667,1111.17 755.5,1111.5C 761.815,1125.03 760.315,1137.69 751,1149.5C 725.944,1175.3 695.444,1187.13 659.5,1185C 643.807,1183.51 632.807,1175.67 626.5,1161.5 Z"/></g>
<g><path style="opacity:1" fill="#fed80b" d="M 1044.5,1249.5 C 1046.18,1246.8 1047.85,1244.13 1049.5,1241.5C 1061.84,1248 1074.84,1252.83 1088.5,1256C 1097.79,1257.44 1107.13,1257.78 1116.5,1257C 1118.61,1256.64 1120.61,1255.97 1122.5,1255C 1110.62,1250.99 1100.78,1244.15 1093,1234.5C 1089.5,1222.01 1094,1213.84 1106.5,1210C 1120.27,1210.09 1133.94,1209.09 1147.5,1207C 1162.52,1202.99 1177.18,1197.99 1191.5,1192C 1179.24,1189.06 1166.91,1186.39 1154.5,1184C 1150.39,1183.37 1147.06,1181.54 1144.5,1178.5C 1153.78,1173.19 1162.78,1167.36 1171.5,1161C 1174.65,1158.23 1175.15,1155.06 1173,1151.5C 1165.24,1146.37 1157.07,1141.87 1148.5,1138C 1136.74,1132.78 1125.08,1127.62 1113.5,1122.5C 1116.85,1122.67 1120.18,1122.5 1123.5,1122C 1146.62,1114.13 1169.95,1113.46 1193.5,1120C 1213.82,1127.18 1212.82,1130.18 1190.5,1129C 1188.67,1129.75 1187,1130.75 1185.5,1132C 1189.72,1133.2 1194.05,1133.87 1198.5,1134C 1201.25,1134.36 1203.25,1135.7 1204.5,1138C 1201.95,1142.92 1198.79,1147.42 1195,1151.5C 1193.06,1155.05 1191.39,1158.71 1190,1162.5C 1189.06,1172.11 1193.22,1178.28 1202.5,1181C 1219.72,1185.51 1237.05,1189.51 1254.5,1193C 1230.83,1204.22 1206.17,1212.22 1180.5,1217C 1170.51,1216.84 1160.51,1216.84 1150.5,1217C 1147.11,1217.8 1143.77,1218.8 1140.5,1220C 1126.05,1229.92 1123.22,1242.42 1132,1257.5C 1141.88,1267.36 1153.38,1274.86 1166.5,1280C 1146.12,1284.32 1126.12,1282.99 1106.5,1276C 1086.38,1265.77 1065.71,1256.94 1044.5,1249.5 Z"/></g>
<g><path style="opacity:1" fill="#f06263" d="M 1153.5,1155.5 C 1153.03,1156.91 1152.03,1157.57 1150.5,1157.5C 1149.61,1156.89 1148.61,1156.56 1147.5,1156.5C 1113.87,1140.01 1078.54,1128.85 1041.5,1123C 997.062,1116.77 957.062,1127.11 921.5,1154C 916.297,1159.04 911.297,1164.2 906.5,1169.5C 904.178,1170.8 902.845,1172.8 902.5,1175.5C 901.522,1175.19 900.855,1174.52 900.5,1173.5C 901.763,1171.97 902.763,1170.3 903.5,1168.5C 928.13,1138.01 960.13,1120.85 999.5,1117C 1035.29,1115.68 1069.95,1121.35 1103.5,1134C 1120.32,1140.91 1136.98,1148.08 1153.5,1155.5 Z"/></g>
<g><path style="opacity:1" fill="#3494cc" d="M 721.5,1122.5 C 721.136,1132.09 718.636,1141.09 714,1149.5C 687.44,1171.68 658.273,1175.68 626.5,1161.5C 623.639,1150.46 624.306,1139.63 628.5,1129C 635.948,1131.36 643.615,1133.36 651.5,1135C 664.283,1135.65 676.95,1134.65 689.5,1132C 700.289,1129.14 710.955,1125.97 721.5,1122.5 Z"/></g>
<g><path style="opacity:1" fill="#f63232" d="M 1147.5,1156.5 C 1102,1168.31 1055.67,1175.81 1008.5,1179C 974.014,1180.57 940.014,1177.4 906.5,1169.5C 911.297,1164.2 916.297,1159.04 921.5,1154C 957.062,1127.11 997.062,1116.77 1041.5,1123C 1078.54,1128.85 1113.87,1140.01 1147.5,1156.5 Z"/></g>
<g><path style="opacity:1" fill="#0b193a" d="M 903.5,1168.5 C 902.763,1170.3 901.763,1171.97 900.5,1173.5C 900.855,1174.52 901.522,1175.19 902.5,1175.5C 933.468,1200.99 969.134,1212.15 1009.5,1209C 1060.96,1203.57 1107.96,1186.41 1150.5,1157.5C 1152.03,1157.57 1153.03,1156.91 1153.5,1155.5C 1157.76,1154.18 1162.09,1153.68 1166.5,1154C 1170.24,1155 1170.24,1156.33 1166.5,1158C 1123.83,1187.56 1076.83,1206.56 1025.5,1215C 975.938,1221.91 932.438,1209.08 895,1176.5C 894.883,1173.22 896.05,1170.39 898.5,1168C 900.107,1168.02 901.774,1168.19 903.5,1168.5 Z"/></g>
<g><path style="opacity:1" fill="#bb2121" d="M 1147.5,1156.5 C 1148.61,1156.56 1149.61,1156.89 1150.5,1157.5C 1107.96,1186.41 1060.96,1203.57 1009.5,1209C 969.134,1212.15 933.468,1200.99 902.5,1175.5C 902.845,1172.8 904.178,1170.8 906.5,1169.5C 940.014,1177.4 974.014,1180.57 1008.5,1179C 1055.67,1175.81 1102,1168.31 1147.5,1156.5 Z"/></g>
<g><path style="opacity:1" fill="#c8cdd6" d="M 701.5,1242.5 C 699.508,1244.36 698.008,1246.7 697,1249.5C 693.871,1278.37 706.705,1291.2 735.5,1288C 753.535,1283.64 767.369,1273.48 777,1257.5C 784.556,1245.61 787.889,1232.61 787,1218.5C 775.074,1202.07 761.241,1187.41 745.5,1174.5C 749.104,1171.4 752.604,1168.07 756,1164.5C 762,1171.83 768,1179.17 774,1186.5C 781.387,1193.89 788.721,1201.22 796,1208.5C 798.658,1227.88 794.658,1245.88 784,1262.5C 767.81,1287 744.976,1298.83 715.5,1298C 695.663,1291.17 686.83,1277.33 689,1256.5C 689.689,1249.93 691.855,1243.93 695.5,1238.5C 697.813,1239.5 699.813,1240.83 701.5,1242.5 Z"/></g>
<g><path style="opacity:1" fill="#f3f3f4" d="M 745.5,1174.5 C 761.241,1187.41 775.074,1202.07 787,1218.5C 787.889,1232.61 784.556,1245.61 777,1257.5C 767.369,1273.48 753.535,1283.64 735.5,1288C 706.705,1291.2 693.871,1278.37 697,1249.5C 698.008,1246.7 699.508,1244.36 701.5,1242.5C 721.176,1250.65 739.842,1248.82 757.5,1237C 763.674,1230.53 762.507,1226.03 754,1223.5C 748.206,1226.98 742.039,1229.81 735.5,1232C 720.014,1235.05 706.348,1231.38 694.5,1221C 687.579,1214.3 681.245,1207.14 675.5,1199.5C 701.188,1197.49 724.521,1189.16 745.5,1174.5 Z"/></g>
<g><path style="opacity:1" fill="#f83f37" d="M 1144.5,1178.5 C 1147.06,1181.54 1150.39,1183.37 1154.5,1184C 1166.91,1186.39 1179.24,1189.06 1191.5,1192C 1177.18,1197.99 1162.52,1202.99 1147.5,1207C 1133.94,1209.09 1120.27,1210.09 1106.5,1210C 1094,1213.84 1089.5,1222.01 1093,1234.5C 1100.78,1244.15 1110.62,1250.99 1122.5,1255C 1120.61,1255.97 1118.61,1256.64 1116.5,1257C 1107.13,1257.78 1097.79,1257.44 1088.5,1256C 1074.84,1252.83 1061.84,1248 1049.5,1241.5C 1053.91,1232.52 1057.91,1223.35 1061.5,1214C 1090.6,1205.45 1118.27,1193.61 1144.5,1178.5 Z"/></g>
<g><path style="opacity:1" fill="#425a71" d="M 1039.5,1218.5 C 1041.2,1218.34 1042.87,1218.51 1044.5,1219C 1039.9,1229.69 1034.4,1239.86 1028,1249.5C 1022.29,1254.88 1016.29,1259.88 1010,1264.5C 1016.43,1250.61 1022.1,1236.28 1027,1221.5C 1031.34,1220.86 1035.51,1219.86 1039.5,1218.5 Z"/></g>
<g><path style="opacity:1" fill="#bdc0c3" d="M 965.5,1220.5 C 980.742,1222.65 996.076,1223.98 1011.5,1224.5C 1004.14,1245.73 993.805,1265.23 980.5,1283C 926.01,1311.83 868.676,1333.17 808.5,1347C 720.881,1367.63 632.214,1373.96 542.5,1366C 558.884,1340.4 571.884,1313.23 581.5,1284.5C 582.793,1285.16 584.293,1285.49 586,1285.5C 615.19,1283.64 644.356,1281.47 673.5,1279C 674.756,1278.58 675.423,1277.75 675.5,1276.5C 684.877,1302.67 703.543,1314.5 731.5,1312C 763.635,1306.01 786.968,1288.51 801.5,1259.5C 801.917,1260.12 802.584,1260.46 803.5,1260.5C 858.469,1250.59 912.469,1237.26 965.5,1220.5 Z"/></g>
<g><path style="opacity:1" fill="#bb2121" d="M 294.5,1243.5 C 313.594,1249.98 332.927,1255.64 352.5,1260.5C 422.922,1276.4 494.256,1283.73 566.5,1282.5C 557.501,1311.48 544.501,1338.48 527.5,1363.5C 463.183,1358.78 404.183,1338.62 350.5,1303C 327.824,1286.83 309.157,1266.99 294.5,1243.5 Z"/></g>
<g><path style="opacity:1" fill="#4a6178" d="M 1031.5,1268.5 C 1026.03,1272.96 1020.03,1276.63 1013.5,1279.5C 1018.27,1275.91 1022.93,1272.08 1027.5,1268C 1029.07,1267.24 1030.4,1267.4 1031.5,1268.5 Z"/></g>
<g><path style="opacity:1" fill="#bb2121" d="M 999.5,1287.5 C 1004.03,1295.53 1008.86,1303.53 1014,1311.5C 1033,1333.11 1056.83,1346.28 1085.5,1351C 1051.71,1367.46 1016.04,1374.8 978.5,1373C 949.941,1368.9 928.274,1354.57 913.5,1330C 943.739,1318.71 972.405,1304.55 999.5,1287.5 Z"/></g>
</svg>
