<svg width="166" height="31" viewBox="0 0 166 31" fill="none" xmlns="http://www.w3.org/2000/svg">
<path d="M45.6222 19.1575C45.6934 18.4771 45.7804 17.6899 45.8832 16.796C45.9861 15.902 46.0968 14.9685 46.2155 13.9954C46.3342 13.0144 46.4528 12.0295 46.5715 11.0406C46.6981 10.0517 46.8207 9.12607 46.9394 8.26375C46.5201 9.0707 46.0968 9.88159 45.6696 10.6964C45.2424 11.5113 44.835 12.2866 44.4474 13.0223C44.0676 13.7502 43.7156 14.4107 43.3912 15.0041C43.0748 15.5974 42.8177 16.0761 42.6199 16.44C42.4379 16.6852 42.256 16.9186 42.074 17.1401C41.892 17.3616 41.7101 17.5554 41.5281 17.7216C41.3541 17.8877 41.18 18.0222 41.006 18.125C40.8319 18.22 40.6619 18.2675 40.4957 18.2675C40.2742 18.2675 40.0962 18.22 39.9617 18.125C39.8351 18.0301 39.7718 17.8877 39.7718 17.6978C39.7718 17.6583 39.7718 17.6227 39.7718 17.591C39.7798 17.5515 39.7916 17.5119 39.8074 17.4724C39.76 16.349 39.7244 15.2177 39.7006 14.0785C39.6769 12.9314 39.665 11.804 39.665 10.6964C39.665 10.4354 39.665 10.1743 39.665 9.91324C39.665 9.65217 39.669 9.39505 39.6769 9.1419C39.3605 9.8539 39.0163 10.5936 38.6445 11.361C38.2727 12.1284 37.885 12.8878 37.4816 13.6394C37.0781 14.3831 36.6627 15.103 36.2355 15.7992C35.8083 16.4874 35.3811 17.1164 34.9539 17.686C34.5267 18.2477 34.1035 18.7303 33.6842 19.1337C33.2728 19.5293 32.8772 19.8062 32.4975 19.9644C32.1652 20.0989 31.8765 20.1938 31.6312 20.2492C31.386 20.3125 31.1684 20.3441 30.9786 20.3441C30.6938 20.3441 30.4802 20.2848 30.3378 20.1661C30.2033 20.0554 30.136 19.9169 30.136 19.7508C30.136 19.553 30.2191 19.3473 30.3852 19.1337C30.5514 18.9201 30.7847 18.754 31.0854 18.6353C31.4493 18.4929 31.8448 18.1804 32.272 17.6978C32.7072 17.2074 33.1541 16.614 33.613 15.9178C34.0718 15.2216 34.5346 14.4463 35.0014 13.5919C35.4682 12.7375 35.9191 11.8713 36.3542 10.9931C36.7972 10.115 37.2126 9.25661 37.6002 8.41802C37.9879 7.57153 38.332 6.8081 38.6326 6.12773C38.9333 5.44737 39.1785 4.88172 39.3684 4.43078C39.5662 3.97194 39.6888 3.68713 39.7362 3.57638C39.847 3.33113 40.0013 3.15313 40.199 3.04237C40.3968 2.93161 40.5986 2.87624 40.8043 2.87624C41.0891 2.87624 41.2868 2.95535 41.3976 3.11357C41.5084 3.26388 41.5637 3.53682 41.5637 3.93238C41.627 4.43078 41.6784 4.9015 41.718 5.34453C41.7655 5.77964 41.805 6.23058 41.8367 6.69734C41.8683 7.15619 41.8881 7.65459 41.896 8.19255C41.9118 8.7226 41.9197 9.33572 41.9197 10.0319C41.9197 10.5303 41.9079 11.0801 41.8841 11.6814C41.8683 12.2826 41.8604 12.9551 41.8604 13.6987C42.8097 11.9741 43.6483 10.4552 44.3762 9.1419C45.1119 7.82073 45.7487 6.71712 46.2867 5.83106C46.8326 4.9371 47.2914 4.26465 47.6633 3.81371C48.0351 3.35486 48.3317 3.12544 48.5533 3.12544H48.6363C48.6601 3.12544 48.6838 3.12544 48.7075 3.12544C48.7313 3.11753 48.755 3.11357 48.7787 3.11357C48.9686 3.11357 49.1189 3.23224 49.2297 3.46958C49.3404 3.70691 49.3958 4.01545 49.3958 4.39518C49.3642 4.78283 49.3167 5.26541 49.2534 5.84293C49.1901 6.42045 49.115 7.0573 49.0279 7.75348C48.9488 8.44176 48.8618 9.16959 48.7669 9.93697C48.6719 10.7044 48.577 11.4678 48.4821 12.2273C48.3871 12.9788 48.2961 13.7106 48.2091 14.4226C48.13 15.1346 48.0628 15.7794 48.0074 16.3569C47.9916 16.4597 47.9837 16.5665 47.9837 16.6773C47.9837 16.7801 47.9837 16.8869 47.9837 16.9977C47.9837 17.2034 47.9876 17.413 47.9955 17.6266C48.0034 17.8323 48.0074 18.038 48.0074 18.2437C48.0074 18.4811 47.9955 18.7223 47.9718 18.9676C47.9481 19.2049 47.8808 19.4225 47.7701 19.6203C47.6672 19.8101 47.5011 19.9644 47.2717 20.0831C47.0422 20.2096 46.7258 20.2729 46.3223 20.2729C46.1087 20.2729 45.9386 20.1899 45.812 20.0237C45.6855 19.8655 45.6222 19.5768 45.6222 19.1575ZM58.0348 12.4765C58.2563 12.3024 58.4422 12.1719 58.5926 12.0849C58.7508 11.9899 58.8853 11.9227 58.996 11.8831C59.1068 11.8357 59.2057 11.808 59.2927 11.8001C59.3876 11.7921 59.4826 11.7882 59.5775 11.7882C59.7436 11.7882 59.8623 11.8515 59.9335 11.9781C60.0047 12.0967 60.0403 12.2233 60.0403 12.3578C60.0403 12.4686 60.0205 12.5714 59.981 12.6663L57.3228 18.2081C57.7026 17.9233 58.1377 17.6464 58.6282 17.3774C59.1266 17.1006 59.6012 16.8553 60.0522 16.6417C60.511 16.4202 60.9026 16.2422 61.227 16.1077C61.5593 15.9732 61.7491 15.906 61.7966 15.906C61.9944 15.906 62.1684 15.9811 62.3187 16.1314C62.469 16.2817 62.5442 16.4716 62.5442 16.701C62.5442 16.9067 62.4651 17.1243 62.3069 17.3537C62.1565 17.5831 61.8876 17.8046 61.4999 18.0182C60.9461 18.3268 60.4636 18.5918 60.0522 18.8133C59.6408 19.0269 59.2769 19.2207 58.9604 19.3948C58.644 19.5688 58.3631 19.7271 58.1179 19.8695C57.8726 20.0119 57.6393 20.1582 57.4177 20.3085C57.2041 20.4588 56.9905 20.6171 56.7769 20.7832C56.5713 20.9573 56.3458 21.159 56.1005 21.3884C55.9186 21.8631 55.7366 22.318 55.5547 22.7531C55.3806 23.1882 55.2184 23.5719 55.0681 23.9042C54.9257 24.2364 54.8071 24.5054 54.7121 24.7111C54.6172 24.9168 54.5658 25.0276 54.5579 25.0434C53.917 26.3725 53.213 27.037 52.4456 27.037C52.1291 27.037 51.872 26.9302 51.6742 26.7166C51.4764 26.5109 51.3776 26.2301 51.3776 25.8741C51.3776 25.5418 51.4171 25.2095 51.4962 24.8772C51.5832 24.5529 51.7296 24.1929 51.9353 23.7974C52.1489 23.4018 52.4258 22.9588 52.766 22.4683C53.1141 21.9857 53.5492 21.4161 54.0713 20.7595L56.4447 15.9534C55.258 17.3616 54.1821 18.4375 53.2169 19.1812C52.2517 19.9248 51.3499 20.2967 50.5113 20.2967C50.2423 20.2967 50.0129 20.2334 49.823 20.1068C49.6331 19.9881 49.5382 19.7864 49.5382 19.5016C49.5382 19.106 49.6331 18.6591 49.823 18.1606C49.9338 17.8917 50.0445 17.6464 50.1553 17.4249C50.266 17.1955 50.3807 16.97 50.4994 16.7485C50.6181 16.5191 50.7407 16.2738 50.8673 16.0128C51.0018 15.7517 51.1442 15.459 51.2945 15.1346C51.4527 14.8024 51.6228 14.4226 51.8048 13.9954C51.9946 13.5603 52.2043 13.054 52.4337 12.4765C52.5919 12.1679 52.7976 11.9464 53.0508 11.8119C53.3039 11.6695 53.5492 11.5983 53.7865 11.5983C54.0318 11.5983 54.2375 11.6577 54.4036 11.7763C54.5776 11.8871 54.6647 12.0374 54.6647 12.2273C54.6647 12.3222 54.6488 12.4053 54.6172 12.4765L52.4456 16.9977C52.3348 17.2271 52.2794 17.4091 52.2794 17.5436C52.2794 17.6622 52.3269 17.7216 52.4218 17.7216C52.5089 17.7216 52.6196 17.6781 52.7541 17.591C52.8886 17.504 53.0152 17.4051 53.1338 17.2944L58.0348 12.4765ZM73.0226 16.618C72.983 16.7683 72.9395 16.9423 72.892 17.1401C72.8525 17.33 72.8327 17.5119 72.8327 17.686C72.8327 17.8442 72.8564 17.9787 72.9039 18.0894C72.9514 18.2002 73.0542 18.2556 73.2124 18.2556C73.426 18.2556 73.6792 18.1804 73.9719 18.0301C74.2725 17.8719 74.5929 17.6662 74.9331 17.413C75.2733 17.152 75.6253 16.8553 75.9893 16.523C76.3532 16.1829 76.7131 15.8348 77.0691 15.4788C77.4251 15.1148 77.7653 14.7509 78.0897 14.387C78.414 14.0231 78.7028 13.6829 78.956 13.3665L79.395 14.9448C78.8729 15.6409 78.3349 16.3094 77.7811 16.9502C77.2274 17.591 76.6617 18.1567 76.0842 18.6472C75.5146 19.1377 74.941 19.5293 74.3635 19.822C73.786 20.1147 73.2124 20.2611 72.6428 20.2611C72.3106 20.2611 72.0258 20.2057 71.7884 20.0949C71.559 19.9921 71.3731 19.8497 71.2307 19.6677C71.0883 19.4779 70.9815 19.2643 70.9103 19.0269C70.847 18.7817 70.8153 18.5246 70.8153 18.2556C70.8153 18.1527 70.8193 18.0064 70.8272 17.8165C70.8351 17.6266 70.843 17.4328 70.8509 17.235C70.8668 17.0293 70.8786 16.8434 70.8865 16.6773C70.9024 16.5112 70.9103 16.4044 70.9103 16.3569L66.6976 16.618L64.7395 16.6417C64.4073 17.3616 64.079 17.9985 63.7546 18.5523C63.6122 18.7896 63.4619 19.023 63.3037 19.2524C63.1454 19.4818 62.9872 19.6875 62.829 19.8695C62.6708 20.0435 62.5126 20.182 62.3543 20.2848C62.1961 20.3956 62.0418 20.4509 61.8915 20.4509C61.6542 20.4509 61.4604 20.4153 61.31 20.3441C61.1597 20.2729 61.0411 20.182 60.954 20.0712C60.867 19.9684 60.8037 19.8497 60.7642 19.7152C60.7325 19.5807 60.7167 19.4541 60.7167 19.3355C60.7167 19.1298 60.7444 18.928 60.7998 18.7303C60.8552 18.5246 60.9343 18.3307 61.0371 18.1488L62.6035 15.5144C62.6747 15.4036 62.8171 15.1386 63.0307 14.7193C63.2522 14.3 63.5331 13.7858 63.8733 13.1766C64.2214 12.5595 64.6209 11.8792 65.0718 11.1355C65.5228 10.3919 66.0093 9.6403 66.5314 8.88083C67.0615 8.11344 67.6192 7.36979 68.2046 6.64987C68.798 5.92995 69.4032 5.2931 70.0203 4.73932C70.6452 4.17763 71.2742 3.73064 71.9071 3.39837C72.54 3.05819 73.1689 2.8881 73.7939 2.8881C74.3793 2.8881 74.9529 3.07006 75.5146 3.43398C76.0842 3.79789 76.6261 4.39518 77.1403 5.22586C77.1957 5.33662 77.2234 5.43155 77.2234 5.51066C77.2234 5.61351 77.1957 5.71635 77.1403 5.8192C77.085 5.92204 77.0098 6.01302 76.9149 6.09213C76.8278 6.17125 76.729 6.23454 76.6182 6.282C76.5074 6.32947 76.3927 6.3532 76.2741 6.3532C76.1317 6.3532 75.9655 6.32156 75.7757 6.25827C75.5937 6.19498 75.4197 6.06049 75.2535 5.8548C75.0083 5.57 74.7512 5.3643 74.4822 5.23773C74.2211 5.10324 73.96 5.03599 73.699 5.03599C73.3271 5.03599 72.9474 5.14279 72.5598 5.35639C72.1721 5.56208 71.7805 5.84689 71.3849 6.2108C70.9973 6.56681 70.6096 6.98214 70.222 7.45681C69.8344 7.92357 69.4586 8.41802 69.0947 8.94016C68.7307 9.4623 68.3787 9.9963 68.0385 10.5422C67.6983 11.088 67.3779 11.6102 67.0773 12.1086C66.7767 12.607 66.4998 13.0658 66.2466 13.4851C66.0014 13.9044 65.7838 14.2565 65.594 14.5413H67.7656L71.4324 14.2683C71.5036 14.1101 71.5985 13.8965 71.7172 13.6275C71.8359 13.3506 71.9664 13.0421 72.1088 12.7019C72.2591 12.3617 72.4213 11.9939 72.5954 11.5983C72.7694 11.2028 72.9434 10.8072 73.1175 10.4116C73.2995 10.0082 73.4775 9.61261 73.6515 9.22496C73.8255 8.8294 73.9877 8.46549 74.138 8.13322C74.2409 7.83259 74.3912 7.61899 74.589 7.49241C74.7947 7.36583 75.0122 7.30255 75.2416 7.30255C75.3603 7.30255 75.479 7.32232 75.5977 7.36188C75.7163 7.39352 75.8231 7.4489 75.9181 7.52801C76.0209 7.59921 76.104 7.69415 76.1673 7.81282C76.2305 7.92357 76.2661 8.05806 76.2741 8.21629C76.2741 8.3666 76.2068 8.62371 76.0723 8.98763C75.9457 9.35154 75.7796 9.77875 75.5739 10.2692C75.3761 10.7597 75.1507 11.2937 74.8975 11.8713C74.6523 12.4409 74.407 13.0144 74.1618 13.5919C73.9244 14.1615 73.7029 14.7114 73.4972 15.2414C73.2915 15.7636 73.1333 16.2224 73.0226 16.618ZM83.9044 12.4646C83.9044 12.7098 83.8767 12.9828 83.8213 13.2834C83.766 13.5761 83.675 13.853 83.5484 14.1141C83.4218 14.3751 83.2596 14.5927 83.0619 14.7668C82.8641 14.9408 82.6188 15.0278 82.3261 15.0278C82.1679 15.0278 82.065 15.0041 82.0176 14.9566C81.978 14.9092 81.9582 14.8261 81.9582 14.7074C81.9582 14.6362 81.9582 14.5334 81.9582 14.3989C81.9662 14.2565 81.9701 14.122 81.9701 13.9954C81.9701 13.853 81.9503 13.7343 81.9108 13.6394C81.8712 13.5366 81.7723 13.4851 81.6141 13.4851C81.4322 13.4851 81.2265 13.5563 80.997 13.6987C80.7755 13.8332 80.5501 14.0112 80.3206 14.2327C80.0991 14.4543 79.8816 14.7074 79.668 14.9922C79.4544 15.2691 79.2605 15.5539 79.0865 15.8466C78.9204 16.1314 78.7859 16.4083 78.683 16.6773C78.5881 16.9463 78.5406 17.1757 78.5406 17.3656C78.5406 17.6425 78.6355 17.86 78.8254 18.0182C79.0232 18.1765 79.2882 18.2556 79.6205 18.2556C79.9765 18.2556 80.3562 18.1962 80.7597 18.0776C81.1632 17.9589 81.5627 17.8086 81.9582 17.6266C82.3617 17.4447 82.7494 17.2469 83.1212 17.0333C83.493 16.8197 83.8292 16.618 84.1299 16.4281C84.4384 16.2303 84.6955 16.0642 84.9012 15.9297C85.1069 15.7873 85.2414 15.7003 85.3047 15.6686C85.4313 15.6053 85.5499 15.5737 85.6607 15.5737C85.7556 15.5737 85.8347 15.5974 85.898 15.6449C85.9692 15.6844 86.0246 15.7359 86.0642 15.7992C86.1037 15.8545 86.1314 15.9178 86.1472 15.989C86.163 16.0523 86.171 16.1077 86.171 16.1552C86.171 16.2264 86.163 16.3134 86.1472 16.4162C86.1314 16.5112 86.0721 16.6219 85.9692 16.7485C85.9297 16.796 85.7991 16.9186 85.5776 17.1164C85.364 17.3062 85.0832 17.5317 84.7351 17.7928C84.3949 18.0538 83.9993 18.3347 83.5484 18.6353C83.1054 18.928 82.6267 19.197 82.1125 19.4423C81.6062 19.6875 81.0801 19.8892 80.5342 20.0475C79.9884 20.2136 79.4504 20.2967 78.9204 20.2967C78.5169 20.2967 78.1569 20.2334 77.8405 20.1068C77.5319 19.9802 77.2709 19.8101 77.0573 19.5965C76.8437 19.375 76.6815 19.1179 76.5707 18.8252C76.46 18.5325 76.4046 18.2239 76.4046 17.8996C76.4046 17.5436 76.4877 17.1362 76.6538 16.6773C76.8199 16.2105 77.0494 15.7359 77.3421 15.2533C77.6348 14.7707 77.9789 14.296 78.3745 13.8293C78.77 13.3625 79.1972 12.9472 79.6561 12.5833C80.1229 12.2193 80.6054 11.9266 81.1038 11.7051C81.6102 11.4836 82.1204 11.3729 82.6347 11.3729C82.8087 11.3729 82.9709 11.3926 83.1212 11.4322C83.2794 11.4717 83.4139 11.535 83.5247 11.6221C83.6433 11.7012 83.7343 11.8119 83.7976 11.9543C83.8688 12.0967 83.9044 12.2668 83.9044 12.4646ZM89.5649 13.5207C89.193 13.5207 88.8331 13.6157 88.485 13.8055C88.1369 13.9954 87.8284 14.2446 87.5594 14.5531C87.2904 14.8617 87.0768 15.2098 86.9186 15.5974C86.7603 15.9772 86.6812 16.3609 86.6812 16.7485C86.6812 16.9067 86.6891 17.0729 86.705 17.2469C86.7287 17.413 86.7762 17.5673 86.8474 17.7097C86.9186 17.8521 87.0175 17.9708 87.144 18.0657C87.2785 18.1606 87.4565 18.2081 87.678 18.2081C87.8521 18.2081 88.0538 18.133 88.2832 17.9826C88.5206 17.8244 88.7619 17.6266 89.0071 17.3893C89.2603 17.1441 89.5055 16.879 89.7429 16.5942C89.9802 16.3015 90.1938 16.0167 90.3837 15.7398C90.5735 15.4629 90.7278 15.2137 90.8465 14.9922C90.9651 14.7707 91.0245 14.6085 91.0245 14.5057C91.0245 14.3554 90.973 14.2209 90.8702 14.1022C90.7674 13.9756 90.6408 13.8688 90.4905 13.7818C90.3402 13.6948 90.178 13.6315 90.0039 13.5919C89.8378 13.5445 89.6914 13.5207 89.5649 13.5207ZM97.7885 16.5824C97.6461 16.7169 97.4563 16.9028 97.2189 17.1401C96.9816 17.3774 96.7087 17.6346 96.4001 17.9114C96.0995 18.1883 95.7751 18.4692 95.427 18.754C95.0869 19.0309 94.7348 19.284 94.3709 19.5135C94.0149 19.7429 93.6629 19.9288 93.3148 20.0712C92.9667 20.2215 92.6384 20.2967 92.3298 20.2967C92.0529 20.2967 91.8156 20.2373 91.6178 20.1187C91.42 20 91.2539 19.8457 91.1194 19.6559C90.9928 19.466 90.8979 19.2524 90.8346 19.0151C90.7713 18.7698 90.7397 18.5206 90.7397 18.2675C90.7397 18.1013 90.7515 17.9391 90.7753 17.7809C90.799 17.6148 90.8386 17.4605 90.8939 17.3181C90.6487 17.6504 90.3678 17.9945 90.0514 18.3505C89.7429 18.6986 89.4066 19.019 89.0427 19.3117C88.6867 19.5965 88.3109 19.8299 87.9154 20.0119C87.5277 20.2017 87.1322 20.2967 86.7287 20.2967C86.523 20.2967 86.2817 20.2532 86.0048 20.1661C85.7358 20.087 85.4787 19.9525 85.2335 19.7627C84.9882 19.5728 84.7825 19.3275 84.6164 19.0269C84.4503 18.7263 84.3672 18.3584 84.3672 17.9233C84.3672 17.599 84.4147 17.2113 84.5096 16.7604C84.6125 16.3094 84.7628 15.8427 84.9605 15.3601C85.1662 14.8696 85.4233 14.387 85.7319 13.9123C86.0483 13.4377 86.4202 13.0144 86.8474 12.6426C87.2746 12.2629 87.7611 11.9583 88.307 11.7289C88.8528 11.4915 89.462 11.3729 90.1345 11.3729C90.4826 11.3729 90.7871 11.4164 91.0482 11.5034C91.3093 11.5904 91.5308 11.6853 91.7127 11.7882C91.9184 11.9148 92.1004 12.0532 92.2586 12.2035C92.3931 12.1323 92.5316 12.0651 92.674 12.0018C92.7926 11.9464 92.9152 11.8989 93.0418 11.8594C93.1763 11.8119 93.291 11.7882 93.386 11.7882C93.6866 11.7882 93.9318 11.8713 94.1217 12.0374C94.3116 12.2035 94.4065 12.3855 94.4065 12.5833C94.4065 12.6386 94.4025 12.6822 94.3946 12.7138C94.3551 12.8641 94.2918 13.054 94.2048 13.2834C94.1257 13.5128 94.0347 13.7699 93.9318 14.0547C93.829 14.3316 93.7222 14.6243 93.6114 14.9329C93.5086 15.2335 93.4136 15.5302 93.3266 15.8229C93.2396 16.1156 93.1684 16.3925 93.113 16.6536C93.0576 16.9067 93.03 17.1243 93.03 17.3062C93.03 17.5436 93.0695 17.7414 93.1486 17.8996C93.2277 18.0499 93.3622 18.125 93.5521 18.125C93.6708 18.125 93.8092 18.0894 93.9674 18.0182C94.1336 17.9391 94.3116 17.8363 94.5014 17.7097C94.6913 17.5831 94.8851 17.4407 95.0829 17.2825C95.2886 17.1164 95.4864 16.9502 95.6762 16.7841C96.1193 16.3885 96.59 15.9376 97.0884 15.4313C97.215 15.3284 97.3376 15.277 97.4563 15.277C97.6145 15.277 97.745 15.3561 97.8479 15.5144C97.9586 15.6647 98.014 15.8348 98.014 16.0246C98.014 16.2461 97.9388 16.4321 97.7885 16.5824ZM103.781 17.591C103.773 17.6069 103.769 17.6266 103.769 17.6504C103.769 17.6741 103.765 17.6939 103.758 17.7097C103.758 17.8521 103.793 18.0024 103.864 18.1606C103.936 18.311 104.05 18.3861 104.208 18.3861C104.272 18.3861 104.319 18.3782 104.351 18.3624C104.802 18.2279 105.257 18.0143 105.716 17.7216C106.182 17.4289 106.629 17.1085 107.056 16.7604C107.484 16.4123 107.875 16.0563 108.231 15.6924C108.595 15.3284 108.896 15.0041 109.133 14.7193C109.244 14.5848 109.367 14.5175 109.501 14.5175C109.62 14.5175 109.723 14.5729 109.81 14.6837C109.905 14.7944 109.952 14.9448 109.952 15.1346C109.952 15.2849 109.908 15.4629 109.821 15.6686C109.742 15.8743 109.608 16.0958 109.418 16.3332C108.951 16.8474 108.473 17.3418 107.982 17.8165C107.492 18.2912 106.997 18.7144 106.499 19.0863C106 19.4502 105.502 19.7429 105.004 19.9644C104.513 20.1859 104.03 20.2967 103.556 20.2967C102.978 20.2967 102.523 20.1345 102.191 19.8101C101.859 19.4779 101.693 18.9834 101.693 18.3268C101.693 18.2872 101.693 18.2477 101.693 18.2081C101.693 18.1606 101.697 18.1171 101.705 18.0776C101.523 18.4099 101.289 18.7144 101.004 18.9913C100.72 19.2603 100.407 19.4937 100.067 19.6915C99.7268 19.8813 99.3747 20.0277 99.0108 20.1305C98.6469 20.2413 98.2948 20.2967 97.9547 20.2967C97.662 20.2967 97.393 20.2571 97.1477 20.178C96.9025 20.0989 96.6889 19.9723 96.5069 19.7983C96.3329 19.6242 96.1944 19.4027 96.0916 19.1337C95.9966 18.8647 95.9492 18.5404 95.9492 18.1606C95.9492 17.4961 96.052 16.8672 96.2577 16.2738C96.4634 15.6726 96.7363 15.1228 97.0765 14.6243C97.4167 14.118 97.8044 13.6671 98.2395 13.2715C98.6825 12.8681 99.1374 12.5279 99.6041 12.251C100.079 11.9662 100.55 11.7486 101.016 11.5983C101.483 11.448 101.91 11.3729 102.298 11.3729C102.749 11.3729 103.136 11.448 103.461 11.5983C103.619 11.6774 103.765 11.7842 103.9 11.9187C103.932 11.8475 103.963 11.7803 103.995 11.717C104.074 11.5271 104.145 11.3649 104.208 11.2304C104.272 11.088 104.315 10.9852 104.339 10.9219C104.363 10.8507 104.43 10.6846 104.541 10.4235C104.651 10.1624 104.778 9.85786 104.92 9.50977C105.071 9.15376 105.229 8.77403 105.395 8.37056C105.569 7.96709 105.727 7.58735 105.87 7.23134C106.012 6.87534 106.135 6.57076 106.238 6.3176C106.341 6.05653 106.404 5.8904 106.428 5.8192C106.483 5.62142 106.558 5.43155 106.653 5.24959C106.748 5.05972 106.859 4.89754 106.985 4.76305C107.12 4.62065 107.274 4.5099 107.448 4.43078C107.622 4.34376 107.82 4.30025 108.041 4.30025C108.342 4.30025 108.591 4.3675 108.789 4.50199C108.987 4.62856 109.086 4.87777 109.086 5.24959C109.086 5.39991 109.066 5.55417 109.026 5.7124C108.987 5.87062 108.939 6.02489 108.884 6.1752C108.837 6.32551 108.781 6.47583 108.718 6.62614C108.662 6.76854 108.611 6.90303 108.564 7.02961C108.168 7.82073 107.753 8.68305 107.318 9.61657C106.882 10.5422 106.451 11.4757 106.024 12.4171C105.597 13.3586 105.189 14.2763 104.802 15.1702C104.414 16.0642 104.074 16.8711 103.781 17.591ZM103.425 12.9511C102.951 12.967 102.452 13.0698 101.93 13.2597C101.329 13.4654 100.779 13.7739 100.281 14.1853C99.7821 14.5887 99.3589 15.0872 99.0108 15.6805C98.6706 16.2738 98.4768 16.9542 98.4293 17.7216C98.4293 18.038 98.5638 18.1962 98.8328 18.1962C99.1651 18.1962 99.4815 18.129 99.7821 17.9945C100.083 17.8521 100.368 17.6662 100.637 17.4368C100.913 17.1994 101.171 16.9305 101.408 16.6298C101.645 16.3292 101.863 16.0167 102.061 15.6924C102.266 15.368 102.448 15.0476 102.606 14.7311C102.773 14.4068 102.915 14.1062 103.034 13.8293C103.073 13.7423 103.129 13.6196 103.2 13.4614C103.263 13.3111 103.338 13.141 103.425 12.9511ZM112.942 12.9986C112.903 12.9907 112.867 12.9867 112.836 12.9867C112.804 12.9867 112.768 12.9867 112.729 12.9867C112.428 12.9867 112.147 13.0461 111.886 13.1647C111.625 13.2834 111.384 13.4416 111.162 13.6394C110.949 13.8293 110.755 14.0468 110.581 14.2921C110.415 14.5373 110.264 14.7826 110.13 15.0278C109.995 15.2652 109.881 15.4946 109.786 15.7161C109.699 15.9376 109.632 16.1235 109.584 16.2738C109.861 16.1314 110.146 15.9693 110.439 15.7873C110.739 15.6053 111.02 15.4313 111.281 15.2652C111.542 15.099 111.768 14.9487 111.957 14.8142C112.155 14.6797 112.294 14.5887 112.373 14.5413C112.729 14.3198 112.974 14.1141 113.109 13.9242C113.243 13.7264 113.31 13.5563 113.31 13.4139C113.31 13.2953 113.271 13.2003 113.192 13.1291C113.12 13.0579 113.037 13.0144 112.942 12.9986ZM113.37 11.361C114.026 11.361 114.517 11.5192 114.841 11.8357C115.165 12.1521 115.328 12.5912 115.328 13.1529C115.328 13.4851 115.241 13.8332 115.067 14.1971C114.893 14.5611 114.592 14.9329 114.165 15.3126C113.737 15.6844 113.164 16.0681 112.444 16.4637C111.732 16.8513 110.838 17.243 109.762 17.6385C109.802 17.8679 109.924 18.0499 110.13 18.1844C110.336 18.311 110.609 18.3743 110.949 18.3743C111.313 18.3743 111.7 18.3228 112.112 18.22C112.531 18.1092 112.942 17.9708 113.346 17.8046C113.757 17.6385 114.157 17.4605 114.544 17.2706C114.932 17.0729 115.28 16.8869 115.589 16.7129C115.905 16.5389 116.166 16.3885 116.372 16.262C116.586 16.1354 116.728 16.0563 116.799 16.0246C116.87 15.9772 116.934 15.9495 116.989 15.9416C117.052 15.9337 117.108 15.9297 117.155 15.9297C117.25 15.9297 117.329 15.9534 117.392 16.0009C117.456 16.0405 117.507 16.0919 117.547 16.1552C117.594 16.2105 117.626 16.2738 117.642 16.345C117.657 16.4083 117.665 16.4637 117.665 16.5112C117.665 16.5824 117.657 16.6694 117.642 16.7722C117.626 16.8672 117.566 16.9779 117.464 17.1045C117.424 17.1441 117.29 17.2509 117.06 17.4249C116.839 17.599 116.55 17.8046 116.194 18.042C115.838 18.2793 115.423 18.5325 114.948 18.8015C114.481 19.0625 113.983 19.3038 113.453 19.5253C112.931 19.7468 112.385 19.9288 111.815 20.0712C111.245 20.2215 110.684 20.2967 110.13 20.2967C109.655 20.2967 109.232 20.2057 108.86 20.0237C108.496 19.8418 108.184 19.5965 107.923 19.288C107.67 18.9795 107.476 18.6235 107.341 18.22C107.207 17.8165 107.14 17.3933 107.14 16.9502C107.14 16.6101 107.207 16.2382 107.341 15.8348C107.476 15.4234 107.67 15.012 107.923 14.6006C108.176 14.1892 108.484 13.7897 108.848 13.4021C109.22 13.0065 109.636 12.6584 110.094 12.3578C110.553 12.0572 111.056 11.8159 111.601 11.6339C112.155 11.452 112.745 11.361 113.37 11.361ZM120.157 19.5965C120.157 19.2168 120.24 18.8291 120.407 18.4336C120.581 18.038 120.798 17.6306 121.059 17.2113C121.32 16.792 121.605 16.3688 121.914 15.9416C122.222 15.5064 122.515 15.0634 122.792 14.6125C122.871 14.4859 122.934 14.3672 122.982 14.2565C123.029 14.1378 123.053 14.0191 123.053 13.9005C123.053 13.7739 123.017 13.6711 122.946 13.5919C122.875 13.5049 122.772 13.4614 122.638 13.4614C122.313 13.4614 122.001 13.5326 121.7 13.675C121.399 13.8095 121.111 13.9915 120.834 14.2209C120.557 14.4424 120.292 14.6995 120.039 14.9922C119.794 15.2849 119.56 15.5895 119.339 15.906C119.125 16.2145 118.923 16.523 118.733 16.8316C118.544 17.1401 118.369 17.421 118.211 17.6741C118.069 17.9352 117.938 18.22 117.82 18.5285C117.701 18.8371 117.57 19.1219 117.428 19.3829C117.294 19.644 117.139 19.8616 116.965 20.0356C116.791 20.2176 116.574 20.3085 116.313 20.3085C116.028 20.3085 115.802 20.2176 115.636 20.0356C115.47 19.8536 115.387 19.6361 115.387 19.3829C115.387 19.2405 115.438 19.019 115.541 18.7184C115.644 18.4178 115.775 18.0697 115.933 17.6741C116.099 17.2706 116.285 16.8434 116.491 16.3925C116.696 15.9416 116.898 15.4946 117.096 15.0516C117.301 14.6085 117.491 14.1932 117.665 13.8055C117.847 13.41 117.998 13.0738 118.116 12.7969C118.259 12.4567 118.445 12.2035 118.674 12.0374C118.911 11.8713 119.145 11.7882 119.374 11.7882C119.572 11.7882 119.746 11.8633 119.896 12.0137C120.055 12.1561 120.134 12.3657 120.134 12.6426C120.134 12.8483 120.086 13.0738 119.991 13.319C120.205 13.1212 120.434 12.9076 120.68 12.6782C120.925 12.4488 121.19 12.2391 121.475 12.0493C121.767 11.8515 122.092 11.6893 122.448 11.5627C122.804 11.4361 123.203 11.3729 123.646 11.3729C123.868 11.3729 124.077 11.4005 124.275 11.4559C124.473 11.5113 124.647 11.5983 124.797 11.717C124.956 11.8357 125.082 11.9899 125.177 12.1798C125.28 12.3697 125.339 12.5991 125.355 12.8681C125.537 12.6861 125.735 12.5081 125.948 12.3341C126.162 12.1521 126.391 11.9899 126.637 11.8475C126.89 11.7051 127.163 11.5904 127.455 11.5034C127.748 11.4164 128.073 11.3729 128.429 11.3729C128.69 11.3729 128.939 11.4005 129.176 11.4559C129.414 11.5113 129.623 11.6062 129.805 11.7407C129.995 11.8673 130.141 12.0334 130.244 12.2391C130.355 12.4448 130.41 12.698 130.41 12.9986C130.41 13.4733 130.3 13.9242 130.078 14.3514C129.864 14.7786 129.611 15.1702 129.319 15.5262C129.224 15.6449 129.097 15.7952 128.939 15.9772C128.781 16.1591 128.626 16.3529 128.476 16.5586C128.326 16.7643 128.195 16.9779 128.084 17.1994C127.974 17.413 127.918 17.6148 127.918 17.8046C127.918 17.9787 127.97 18.0894 128.073 18.1369C128.183 18.1844 128.326 18.2081 128.5 18.2081C128.832 18.2081 129.192 18.1092 129.58 17.9114C129.967 17.7137 130.343 17.4763 130.707 17.1994C131.079 16.9146 131.423 16.6219 131.739 16.3213C132.064 16.0128 132.321 15.7556 132.511 15.55C132.558 15.4946 132.614 15.455 132.677 15.4313C132.74 15.4076 132.803 15.3957 132.867 15.3957C133.009 15.3957 133.136 15.459 133.246 15.5856C133.365 15.7121 133.424 15.8783 133.424 16.084C133.424 16.2422 133.377 16.4162 133.282 16.6061C133.187 16.796 133.025 16.9819 132.796 17.1638C132.368 17.5752 131.929 17.9708 131.478 18.3505C131.035 18.7223 130.584 19.0546 130.126 19.3473C129.675 19.6321 129.22 19.8616 128.761 20.0356C128.31 20.2096 127.859 20.2967 127.408 20.2967C126.823 20.2967 126.348 20.1582 125.984 19.8813C125.628 19.6044 125.45 19.1654 125.45 18.5641C125.45 18.1686 125.525 17.7967 125.675 17.4486C125.826 17.1006 126.012 16.7683 126.233 16.4518C126.455 16.1275 126.688 15.815 126.933 15.5144C127.179 15.2137 127.392 14.9131 127.574 14.6125C127.653 14.4859 127.717 14.3672 127.764 14.2565C127.811 14.1378 127.835 14.0191 127.835 13.9005C127.835 13.7739 127.8 13.6711 127.728 13.5919C127.657 13.5049 127.554 13.4614 127.42 13.4614C127.096 13.4614 126.783 13.5326 126.482 13.675C126.182 13.8095 125.893 13.9915 125.616 14.2209C125.339 14.4424 125.074 14.6995 124.821 14.9922C124.576 15.2849 124.342 15.5895 124.121 15.906C123.907 16.2145 123.706 16.523 123.516 16.8316C123.326 17.1401 123.152 17.421 122.994 17.6741C122.851 17.9352 122.721 18.22 122.602 18.5285C122.483 18.8371 122.353 19.1219 122.21 19.3829C122.076 19.644 121.922 19.8616 121.748 20.0356C121.574 20.2176 121.356 20.3085 121.095 20.3085C121 20.3085 120.897 20.2888 120.786 20.2492C120.676 20.2176 120.573 20.1701 120.478 20.1068C120.391 20.0435 120.316 19.9684 120.252 19.8813C120.197 19.7943 120.165 19.6994 120.157 19.5965ZM139.132 12.4765C139.354 12.3024 139.54 12.1719 139.69 12.0849C139.848 11.9899 139.983 11.9227 140.094 11.8831C140.204 11.8357 140.303 11.808 140.39 11.8001C140.485 11.7921 140.58 11.7882 140.675 11.7882C140.841 11.7882 140.96 11.8515 141.031 11.9781C141.102 12.0967 141.138 12.2233 141.138 12.3578C141.138 12.4686 141.118 12.5714 141.079 12.6663L138.42 18.2081C138.8 17.9233 139.235 17.6464 139.726 17.3774C140.224 17.1006 140.699 16.8553 141.15 16.6417C141.609 16.4202 142 16.2422 142.325 16.1077C142.657 15.9732 142.847 15.906 142.894 15.906C143.092 15.906 143.266 15.9811 143.416 16.1314C143.567 16.2817 143.642 16.4716 143.642 16.701C143.642 16.9067 143.563 17.1243 143.404 17.3537C143.254 17.5831 142.985 17.8046 142.597 18.0182C142.044 18.3268 141.561 18.5918 141.15 18.8133C140.738 19.0269 140.374 19.2207 140.058 19.3948C139.742 19.5688 139.461 19.7271 139.215 19.8695C138.97 20.0119 138.737 20.1582 138.515 20.3085C138.302 20.4588 138.088 20.6171 137.875 20.7832C137.669 20.9573 137.443 21.159 137.198 21.3884C137.016 21.8631 136.834 22.318 136.652 22.7531C136.478 23.1882 136.316 23.5719 136.166 23.9042C136.023 24.2364 135.905 24.5054 135.81 24.7111C135.715 24.9168 135.663 25.0276 135.655 25.0434C135.015 26.3725 134.311 27.037 133.543 27.037C133.227 27.037 132.97 26.9302 132.772 26.7166C132.574 26.5109 132.475 26.2301 132.475 25.8741C132.475 25.5418 132.515 25.2095 132.594 24.8772C132.681 24.5529 132.827 24.1929 133.033 23.7974C133.246 23.4018 133.523 22.9588 133.864 22.4683C134.212 21.9857 134.647 21.4161 135.169 20.7595L137.542 15.9534C136.356 17.3616 135.28 18.4375 134.314 19.1812C133.349 19.9248 132.447 20.2967 131.609 20.2967C131.34 20.2967 131.11 20.2334 130.921 20.1068C130.731 19.9881 130.636 19.7864 130.636 19.5016C130.636 19.106 130.731 18.6591 130.921 18.1606C131.031 17.8917 131.142 17.6464 131.253 17.4249C131.364 17.1955 131.478 16.97 131.597 16.7485C131.716 16.5191 131.838 16.2738 131.965 16.0128C132.099 15.7517 132.242 15.459 132.392 15.1346C132.55 14.8024 132.72 14.4226 132.902 13.9954C133.092 13.5603 133.302 13.054 133.531 12.4765C133.689 12.1679 133.895 11.9464 134.148 11.8119C134.402 11.6695 134.647 11.5983 134.884 11.5983C135.129 11.5983 135.335 11.6577 135.501 11.7763C135.675 11.8871 135.762 12.0374 135.762 12.2273C135.762 12.3222 135.746 12.4053 135.715 12.4765L133.543 16.9977C133.432 17.2271 133.377 17.4091 133.377 17.5436C133.377 17.6622 133.424 17.7216 133.519 17.7216C133.606 17.7216 133.717 17.6781 133.852 17.591C133.986 17.504 134.113 17.4051 134.231 17.2944L139.132 12.4765Z" fill="white"/>
<path d="M10.2856 21.5508L9.79581 17.6324" stroke="white" stroke-width="1.95916" stroke-linecap="round" stroke-linejoin="round"/>
<path d="M21.5508 21.5508V5.87747H12.2447L12.7345 9.79579L13.2243 13.7141L13.7141 17.6324L10.2856 21.5508H21.5508Z" fill="#2F88FF" stroke="white" stroke-width="1.95916" stroke-linecap="round" stroke-linejoin="round"/>
<path d="M13.2243 13.7141H17.1427" stroke="white" stroke-width="1.95916" stroke-linecap="round" stroke-linejoin="round"/>
<path d="M12.7346 9.79581H17.1427" stroke="white" stroke-width="1.95916" stroke-linecap="round" stroke-linejoin="round"/>
<path d="M1.95917 1.95917H11.755L12.2448 5.87749L12.7346 9.79581L13.2243 13.7141L13.7141 17.6325H9.79581H1.95917V1.95917Z" fill="#2F88FF" stroke="white" stroke-width="1.95916" stroke-linecap="round" stroke-linejoin="round"/>
<path d="M4.89789 5.87747H8.32642" stroke="white" stroke-width="1.95916" stroke-linecap="round" stroke-linejoin="round"/>
<path d="M4.89789 9.79581H8.81621" stroke="white" stroke-width="1.95916" stroke-linecap="round" stroke-linejoin="round"/>
<path d="M4.89789 13.7141H9.306" stroke="white" stroke-width="1.95916" stroke-linecap="round" stroke-linejoin="round"/>
</svg>
